<?xml version="1.0" encoding="utf-8"?>
<!-- Generator: Adobe Illustrator 15.1.0, SVG Export Plug-In . SVG Version: 6.00 Build 0)  -->
<!DOCTYPE svg PUBLIC "-//W3C//DTD SVG 1.1//EN" "http://www.w3.org/Graphics/SVG/1.1/DTD/svg11.dtd">
<svg version="1.1" xmlns="http://www.w3.org/2000/svg" xmlns:xlink="http://www.w3.org/1999/xlink" x="0px" y="0px" width="500px"
	 height="75.04px" viewBox="0 0 500 75.04" enable-background="new 0 0 500 75.04" xml:space="preserve">
<g id="Hintergrund">
</g>
<g id="Hilfslinien_anzeigen">
</g>
<g id="Vordergrund">
	<g>
		<path fill-rule="evenodd" clip-rule="evenodd" fill="#1A171B" d="M44.504,36.825l-2.667,13.824h9.141
			c-0.958,3.392-5.013,4.866-8.183,4.866c-6.56,0-10.394-5.75-10.394-11.869c0-6.708,2.166-13.777,11.206-12.9
			c3.228,0.312,6.118,1.474,7.666,4.275l16.087-9.624c-4.351-9.509-14.833-11.606-24.491-11.606
			c-17.47,0-33.025,10.861-33.025,28.997c0,17.839,15.923,28.354,32.878,28.354c8.625,0,17.692-3.465,23.59-9.878
			c6.561-7.077,7.359-10.9,7.507-19.968L44.504,36.825z M79.476,70.52l36.658,1.36l1.307-16.545l-19.208,2.199l0.659-8.089
			l16.453-0.467l0.922-12.242L99.55,39.238l-0.659-9.548l17.769,0.86l1.449-17.9L78.49,16.993L79.476,70.52z M243.809,73.064
			l36.2-2.807v-17.84l-18.037,2.352l1.578-41.592l-20.695,1.498L243.809,73.064z M347.789,71.354l19.029-1.096l3.084-55.765
			l-23.283,0.182L347.789,71.354z M373.852,74.25l21.99-3.335v-18.06c0-3.686-0.589-7.299-1.252-11.132h0.589l18.422,30.156
			l18.658-0.965l2.536-57.211l-21.85,1.629v16.659c0,4.718,0.883,9.51,1.694,14.154h-0.591l-18.133-30.813l-19.43-2.815
			L373.852,74.25z M469.174,13.791c-16.878,0-30.738,11.352-30.738,28.823c0,17.84,13.785,28.528,30.738,28.528
			c16.958,0,30.742-10.688,30.742-28.528C499.916,25.142,486.058,13.791,469.174,13.791z M469.174,32.072
			c6.414,0,10.395,4.939,10.395,10.836c0,6.34-4.276,10.689-10.395,10.689c-6.115,0-10.392-4.35-10.392-10.689
			C458.782,37.011,462.762,32.072,469.174,32.072z M285.927,73.328l25.321-3.07c16.272-2.326,27.94-10.469,27.94-26.98
			c0-20.42-14.302-28.603-32.952-28.603l-23.6-0.05L285.927,73.328z M301.984,32.131l5.139-0.059c7.37,0,11.868,3.317,11.868,11.13
			c0,7.299-5.161,10.396-11.868,10.396h-1.254L301.984,32.131z M200.443,63.064l13.881-5.005l4.081,15.927l21.718-4.212
			L206.973,7.509l-29.53,62.485l20.165,3.729L200.443,63.064z M203.792,50.133l3.687-16.955h0.736
			c0.368,2.36,0.738,4.793,1.327,7.15l1.756,7.466L203.792,50.133z M126.408,70.258l20.92,2.412l-1.165-20.252h0.368l16.066,22.622
			l15.795-10.399l-11.809-12.443c-1.107-1.622-2.359-2.507-3.392-3.317v-0.442c7.519-2.506,10.762-6.045,10.762-14.45
			c0-14.004-15.306-19.101-23.146-19.313l-26.119-1.498L126.408,70.258z M145.09,29.893l2.621-0.033
			c3.464,0,6.487,0.517,6.487,4.792c0,4.128-3.317,4.645-6.634,4.645h-1.401L145.09,29.893z"/>
		<path fill-rule="evenodd" clip-rule="evenodd" fill="#FFBC00" stroke="#1A171B" d="M35.281,30.572l-2.667,13.824h9.141
			c-0.959,3.392-5.014,4.866-8.184,4.866c-6.559,0-10.393-5.75-10.393-11.869c0-6.708,2.165-13.778,11.204-12.899
			c3.229,0.312,6.119,1.473,7.666,4.274l16.087-9.624C53.786,9.634,43.303,7.538,33.646,7.538C16.175,7.538,0.62,18.399,0.62,36.533
			c0,17.839,15.923,28.355,32.879,28.355c8.625,0,17.692-3.465,23.59-9.877c6.561-7.078,7.36-10.901,7.506-19.969L35.281,30.572z
			 M70.252,64.268l36.658,1.359l1.307-16.545l-19.208,2.199l0.66-8.088l16.452-0.468l0.921-12.242l-16.716,2.501l-0.658-9.548
			l17.769,0.861l1.447-17.9L69.266,10.74L70.252,64.268z M234.584,66.812l36.201-2.806V46.165l-18.038,2.351l1.58-41.591
			l-20.695,1.498L234.584,66.812z M338.568,65.101l19.027-1.095l3.085-55.767l-23.282,0.183L338.568,65.101z M364.626,67.997
			l21.993-3.335v-18.06c0-3.687-0.59-7.3-1.253-11.132h0.587l18.426,30.156l18.657-0.965l2.532-57.211l-21.848,1.63v16.66
			c0,4.717,0.885,9.509,1.696,14.153h-0.589L386.691,9.081l-19.431-2.816L364.626,67.997z M459.953,7.538
			c-16.881,0-30.74,11.352-30.74,28.823c0,17.839,13.782,28.528,30.74,28.528c16.954,0,30.738-10.689,30.738-28.528
			C490.691,18.89,476.833,7.538,459.953,7.538z M459.953,25.819c6.412,0,10.393,4.939,10.393,10.836
			c0,6.34-4.274,10.688-10.393,10.688c-6.117,0-10.396-4.349-10.396-10.688C449.557,30.758,453.539,25.819,459.953,25.819z
			 M276.703,67.075l25.322-3.069c16.273-2.326,27.939-10.47,27.939-26.981c0-20.419-14.301-28.603-32.951-28.603l-23.603-0.05
			L276.703,67.075z M292.762,25.878l5.137-0.059c7.37,0,11.867,3.317,11.867,11.131c0,7.298-5.16,10.394-11.867,10.394h-1.254
			L292.762,25.878z M191.22,56.812l13.881-5.005l4.08,15.926l21.718-4.211L197.75,1.256l-29.53,62.486l20.165,3.728L191.22,56.812z
			 M194.568,43.88l3.687-16.955h0.736c0.368,2.359,0.737,4.792,1.327,7.15l1.756,7.465L194.568,43.88z M117.184,64.006l20.92,2.412
			l-1.165-20.253h0.368l16.064,22.622l15.796-10.398L157.36,45.943c-1.105-1.621-2.359-2.506-3.392-3.316v-0.441
			c7.52-2.508,10.762-6.046,10.762-14.45c0-14.005-15.306-19.102-23.146-19.313l-26.119-1.498L117.184,64.006z M135.867,23.639
			l2.621-0.032c3.465,0,6.487,0.517,6.487,4.792c0,4.128-3.317,4.644-6.634,4.644h-1.4L135.867,23.639z"/>
	</g>
</g>
</svg>
